<svg width="200" height="200" viewBox="0 0 200 200" fill="none" xmlns="http://www.w3.org/2000/svg">
<g filter="url(#filter0_d_162_7)">
<path d="M132.911 25.4654C134.305 25.4648 135.7 25.4635 137.094 25.4619C138.685 25.4601 140.276 25.4592 141.867 25.4595C142.683 25.4596 143.498 25.4593 144.313 25.4581C149.176 25.4509 154.037 25.5181 158.886 25.9214C159.004 25.931 159.122 25.9406 159.244 25.9504C166.228 26.519 173.526 27.6563 178.971 32.4571C179.084 32.5557 179.196 32.6543 179.312 32.7558C181.236 34.4667 182.704 36.4609 183.886 38.7429C183.925 38.817 183.963 38.8911 184.003 38.9674C184.954 40.8041 185.597 42.7766 186.043 44.7929C186.065 44.8913 186.086 44.9897 186.109 45.0911C186.45 46.7404 186.558 48.3845 186.55 50.0643C186.55 50.1562 186.549 50.248 186.549 50.3427C186.513 58.7402 182.753 67.322 177.76 73.958C177.611 74.1569 177.463 74.357 177.316 74.5576C176.544 75.601 175.719 76.5976 174.879 77.5857C174.829 77.6447 174.779 77.7037 174.727 77.7645C173.652 79.0201 172.501 80.2035 171.331 81.3699C171.112 81.5875 170.895 81.8058 170.677 82.0241C169.995 82.707 169.311 83.3783 168.571 84C168.448 84.1084 168.324 84.217 168.2 84.3259C167.178 85.2176 166.114 86.0446 165.029 86.8571C164.94 86.9235 164.852 86.9899 164.762 87.0583C163.513 87.9992 162.243 88.89 160.914 89.7143C160.842 89.7588 160.771 89.8034 160.697 89.8493C159.622 90.5123 158.525 91.1338 157.416 91.7371C157.234 91.8358 157.053 91.9351 156.873 92.0348C155.578 92.7473 154.255 93.3754 152.9 93.9643C152.823 93.9977 152.747 94.0311 152.668 94.0655C152.45 94.1604 152.232 94.2543 152.013 94.3478C151.887 94.402 151.76 94.4563 151.63 94.5121C151.314 94.6286 151.314 94.6286 150.971 94.6286C150.971 94.704 150.971 94.7794 150.971 94.8571C151.072 94.8711 151.172 94.885 151.275 94.8994C156 95.7898 161.043 99.8387 163.732 103.708C165.581 106.434 166.724 109.54 167.2 112.8C167.212 112.878 167.223 112.956 167.236 113.036C168.772 123.619 163.562 135.308 157.4 143.664C157.252 143.862 157.102 144.06 156.952 144.256C156.79 144.47 156.63 144.686 156.47 144.903C155.712 145.929 154.921 146.925 154.11 147.91C153.959 148.094 153.81 148.279 153.661 148.464C153.14 149.11 152.598 149.729 152.037 150.339C151.82 150.575 151.609 150.814 151.4 151.057C150.356 152.253 149.249 153.39 148.129 154.514C148.028 154.615 147.928 154.716 147.824 154.82C147.316 155.327 146.802 155.817 146.258 156.284C145.983 156.521 145.717 156.768 145.45 157.014C144.943 157.476 144.425 157.917 143.891 158.347C143.637 158.552 143.385 158.759 143.133 158.967C140.266 161.335 137.179 163.428 133.943 165.257C133.842 165.315 133.741 165.372 133.637 165.431C127.604 168.837 121.098 171.049 114.286 172.229C114.191 172.247 114.096 172.266 113.998 172.285C113.126 172.446 112.289 172.489 111.404 172.485C111.258 172.485 111.113 172.485 110.962 172.485C110.562 172.486 110.161 172.485 109.76 172.484C109.326 172.483 108.892 172.483 108.459 172.483C107.708 172.483 106.958 172.483 106.208 172.481C105.123 172.479 104.039 172.479 102.954 172.479C101.194 172.478 99.4341 172.477 97.6741 172.474C95.9651 172.472 94.2561 172.471 92.5471 172.47C92.3889 172.47 92.3889 172.47 92.2275 172.47C91.6983 172.469 91.1692 172.469 90.6401 172.469C86.2553 172.466 81.8705 172.462 77.4857 172.457C77.2361 171.959 76.9867 171.461 76.7374 170.963C76.6528 170.794 76.5682 170.626 76.4836 170.457C75.9999 169.492 75.5195 168.526 75.0571 167.55C74.4731 166.319 73.8765 165.095 73.2785 163.871C72.5499 162.38 71.8237 160.887 71.1031 159.392C70.5898 158.327 70.0739 157.263 69.5571 156.2C69.3921 155.86 69.227 155.521 69.062 155.181C69.0211 155.097 68.9803 155.013 68.9382 154.926C68.5083 154.042 68.079 153.157 67.65 152.271C67.6124 152.194 67.5749 152.117 67.5362 152.037C67.234 151.413 66.9319 150.79 66.6297 150.167C65.4115 147.653 64.1919 145.141 62.9714 142.629C61.7888 140.195 60.607 137.76 59.4267 135.325C59.0845 134.619 58.7423 133.913 58.4001 133.207C58.2096 132.814 58.019 132.422 57.8285 132.029C57.7523 131.871 57.6761 131.714 57.6 131.557C57.4476 131.243 57.2952 130.929 57.1428 130.614C57.1051 130.536 57.0674 130.459 57.0285 130.379C56.9523 130.221 56.8762 130.064 56.8 129.907C56.6094 129.514 56.4188 129.121 56.2283 128.728C55.8865 128.023 55.5446 127.318 55.2029 126.613C54.3835 124.923 53.5637 123.232 52.7428 121.543C51.8841 119.775 51.0266 118.007 50.1695 116.239C49.9418 115.769 49.714 115.299 49.4861 114.829C49.4484 114.752 49.4106 114.674 49.3718 114.594C49.2574 114.358 49.1429 114.122 49.0285 113.886C48.1898 112.156 48.1898 112.156 47.7743 111.299C46.955 109.608 46.1351 107.918 45.3142 106.229C44.4556 104.461 43.598 102.693 42.741 100.925C42.3988 100.219 42.0566 99.5132 41.7144 98.8074C41.5238 98.4144 41.3333 98.0215 41.1428 97.6286C41.0666 97.4714 40.9904 97.3143 40.9142 97.1571C40.7619 96.8429 40.6095 96.5286 40.4571 96.2143C40.4005 96.0976 40.4005 96.0976 40.3428 95.9786C40.2666 95.8214 40.1904 95.6643 40.1143 95.5072C39.9237 95.1141 39.7331 94.7211 39.5426 94.3281C39.2007 93.6231 38.8589 92.9181 38.5172 92.213C37.6978 90.5226 36.878 88.8325 36.0571 87.1429C35.4256 85.8431 34.7946 84.5431 34.1642 83.2429C34.1078 83.1264 34.1078 83.1264 34.0502 83.0077C33.6746 82.2328 33.299 81.4579 32.9236 80.6829C32.7372 80.2981 32.5507 79.9133 32.3642 79.5286C32.3271 79.452 32.29 79.3755 32.2518 79.2966C31.5667 77.883 30.8785 76.4708 30.19 75.0588C29.5085 73.661 28.83 72.2619 28.1557 70.8606C28.0962 70.737 28.0367 70.6135 27.9754 70.4862C27.9209 70.3716 27.8664 70.257 27.8103 70.1389C27.7157 69.9473 27.6161 69.758 27.5088 69.5732C27.0087 68.7042 27.3111 67.8193 27.5282 66.8886C27.5499 66.7935 27.5716 66.6984 27.594 66.6004C27.6664 66.2836 27.7397 65.967 27.8129 65.6504C27.8654 65.4215 27.9179 65.1925 27.9703 64.9635C28.1136 64.3382 28.2576 63.7131 28.4018 63.088C28.5562 62.4178 28.7099 61.7475 28.8637 61.0772C29.1262 59.9334 29.3891 58.7897 29.6522 57.646C30.0485 55.9237 30.4438 54.2012 30.8388 52.4786C31.2346 50.7527 31.6305 49.0269 32.0269 47.3011C32.06 47.157 32.0931 47.0128 32.1272 46.8643C32.1944 46.5718 32.2615 46.2793 32.3287 45.9868C32.883 43.5734 33.4366 41.1598 33.9893 38.746C34.1205 38.1731 34.2517 37.6002 34.383 37.0273C34.4013 36.9474 34.4196 36.8675 34.4385 36.7851C34.5119 36.4649 34.5852 36.1447 34.6586 35.8245C34.8721 34.8927 35.0855 33.9608 35.2987 33.0288C35.4468 32.381 35.5952 31.7333 35.7438 31.0856C35.8045 30.8207 35.8651 30.5558 35.9256 30.2908C36.0086 29.9276 36.0918 29.5645 36.1752 29.2014C36.2107 29.0454 36.2107 29.0454 36.2469 28.8863C36.4127 28.1664 36.601 27.4542 36.8 26.7429C36.9131 26.7429 37.0262 26.7429 37.1428 26.7429C37.1725 26.8051 37.2022 26.8674 37.2328 26.9316C38.0816 28.7103 38.9368 30.4859 39.7944 32.2604C40.0966 32.8856 40.3984 33.511 40.7003 34.1364C40.8668 34.4814 41.0334 34.8264 41.2 35.1714C41.2666 35.3095 41.3333 35.4476 41.4 35.5857C41.433 35.6541 41.466 35.7224 41.5 35.7929C48.2 49.6714 48.2 49.6714 48.3 49.8786C48.3666 50.0167 48.4333 50.1548 48.5 50.2929C48.6665 50.6378 48.833 50.9827 48.9995 51.3276C49.3015 51.9533 49.6036 52.579 49.9058 53.2046C50.0753 53.5554 50.2448 53.9063 50.4142 54.2571C50.4477 54.3264 50.4811 54.3956 50.5156 54.467C50.969 55.4059 51.4208 56.3455 51.8714 57.2857C52.4454 58.4835 53.0246 59.6787 53.6046 60.8735C54.1554 62.0083 54.7033 63.1445 55.2482 64.2821C55.7243 65.2753 56.2047 66.2663 56.6857 67.2571C57.2762 68.4736 57.8641 69.6912 58.4482 70.9107C58.9243 71.9039 59.4047 72.8949 59.8857 73.8857C60.4814 75.1129 61.0748 76.3412 61.6642 77.5714C62.0983 78.477 62.5345 79.3815 62.9714 80.2857C63.4634 81.304 63.9541 82.323 64.4428 83.3429C65.0169 84.5406 65.596 85.7358 66.176 86.9307C66.7268 88.0655 67.2747 89.2016 67.8196 90.3393C68.2957 91.3324 68.7761 92.3235 69.2571 93.3143C69.8475 94.5306 70.4354 95.748 71.0194 96.9674C71.4978 97.9655 71.9808 98.9614 72.4642 99.9571C73.0286 101.12 73.5902 102.283 74.1462 103.45C74.6446 104.494 75.15 105.534 75.6553 106.575C76.1535 107.601 76.65 108.628 77.1428 109.657C77.6727 110.764 78.2071 111.868 78.7428 112.971C79.3333 114.188 79.9212 115.405 80.5053 116.625C80.9814 117.618 81.4619 118.609 81.9428 119.6C82.5387 120.828 83.1322 122.056 83.7219 123.287C84.1512 124.182 84.5823 125.077 85.0142 125.971C85.0644 126.075 85.0644 126.075 85.1155 126.181C85.2853 126.533 85.4551 126.884 85.6248 127.235C85.9263 127.859 86.2275 128.484 86.5288 129.108C86.6953 129.453 86.8619 129.798 87.0285 130.143C87.0952 130.281 87.1619 130.419 87.2285 130.557C87.2615 130.625 87.2945 130.694 87.3285 130.764C92.4285 141.329 92.4285 141.329 92.5285 141.536C92.5952 141.674 92.662 141.812 92.7287 141.95C92.8944 142.294 93.0601 142.637 93.2258 142.98C93.537 143.625 93.8485 144.27 94.1607 144.914C94.3076 145.218 94.4544 145.521 94.6011 145.824C94.6708 145.968 94.7406 146.112 94.8105 146.256C94.9076 146.456 95.0044 146.656 95.1013 146.856C95.1563 146.97 95.2114 147.083 95.2681 147.2C95.4449 147.578 95.6091 147.959 95.7714 148.343C105.855 148.442 116.681 148.299 124.845 141.524C125.025 141.375 125.207 141.228 125.389 141.082C127.015 139.76 128.478 138.264 129.714 136.571C129.812 136.44 129.91 136.308 130.008 136.177C130.698 135.241 131.313 134.269 131.886 133.257C131.93 133.179 131.975 133.1 132.021 133.02C133.907 129.684 135.371 125.805 135.543 121.943C135.549 121.831 135.555 121.72 135.561 121.604C135.642 118.824 134.798 116.13 132.914 114.057C132.093 113.214 131.205 112.56 130.171 112C130.101 111.961 130.031 111.923 129.958 111.883C125.744 109.616 120.232 109.611 115.544 109.37C115.45 109.365 115.356 109.36 115.259 109.355C113.057 109.243 110.855 109.185 108.651 109.135C108.136 109.124 107.621 109.111 107.106 109.099C106.109 109.075 105.112 109.051 104.114 109.029C103.286 107.478 102.497 105.91 101.729 104.329C101.616 104.099 101.504 103.869 101.392 103.639C100.79 102.402 100.19 101.164 99.5972 99.9232C99.0799 98.8413 98.5542 97.7635 98.0285 96.6857C97.2696 95.1296 96.512 93.5729 95.7574 92.0148C95.6838 91.8628 95.6102 91.7109 95.5366 91.5589C95.4821 91.4464 95.4821 91.4464 95.4265 91.3316C95.1868 90.837 94.9467 90.3426 94.7063 89.8484C94.5376 89.5015 94.369 89.1546 94.2004 88.8077C94.1202 88.6429 94.04 88.478 93.9597 88.3132C93.8484 88.0848 93.7373 87.8562 93.6263 87.6277C93.5315 87.433 93.5315 87.433 93.4349 87.2343C93.1343 86.5965 92.8761 85.9845 92.7214 85.2929C92.6927 85.1675 92.6639 85.0421 92.6343 84.9129C92.5714 84.5714 92.5714 84.5714 92.5714 84.1143C92.7104 84.1138 92.8494 84.1133 92.9927 84.1128C96.3143 84.1012 99.6359 84.0891 102.958 84.0764C103.369 84.0749 103.78 84.0733 104.192 84.0717C104.315 84.0713 104.315 84.0713 104.44 84.0708C105.755 84.0658 107.07 84.0611 108.385 84.0566C109.741 84.0519 111.096 84.0469 112.452 84.0415C113.211 84.0385 113.97 84.0357 114.728 84.0333C118.471 84.0212 122.21 83.996 125.95 83.8393C126.082 83.8338 126.082 83.8338 126.216 83.8282C133.498 83.5131 140.669 81.5602 146.116 76.4915C146.362 76.2633 146.614 76.0451 146.871 75.8286C148.615 74.3002 149.943 72.2835 151.086 70.2857C151.154 70.1683 151.154 70.1683 151.223 70.0485C153.348 66.3456 154.913 61.6312 153.829 57.3714C153.521 56.3597 153.076 55.485 152.457 54.6286C152.37 54.5073 152.37 54.5073 152.28 54.3835C150.459 52.098 147.002 51.2044 144.227 50.8901C140.194 50.5007 136.114 50.4998 132.066 50.4505C131.97 50.4493 131.875 50.4481 131.776 50.4468C124.63 50.3586 117.483 50.3871 110.336 50.3918C108.926 50.3927 107.515 50.3933 106.104 50.3937C106.004 50.3938 105.903 50.3938 105.8 50.3938C105.295 50.394 104.79 50.3941 104.285 50.3943C100.152 50.3954 96.0187 50.3974 91.8857 50.4C91.5481 51.7779 91.2106 53.1558 90.8731 54.5337C90.7163 55.1741 90.5594 55.8145 90.4025 56.4549C89.5929 59.76 88.7845 63.0654 87.9785 66.3714C87.9546 66.4695 87.9307 66.5676 87.9061 66.6687C87.7662 67.2425 87.6263 67.8164 87.4864 68.3903C86.9024 70.7862 86.3175 73.1819 85.7324 75.5776C84.8757 79.0849 84.0197 82.5924 83.1642 86.1C83.1388 86.2043 83.1134 86.3085 83.0872 86.416C82.7819 87.6678 82.4766 88.9196 82.1714 90.1714C82.0582 90.1714 81.9451 90.1714 81.8285 90.1714C79.4819 85.3962 79.4819 85.3962 78.6785 83.6429C78.0736 82.3226 77.4392 81.0181 76.8 79.7143C76.0957 78.278 75.4031 76.8385 74.7361 75.3844C74.2035 74.2285 73.6454 73.0857 73.0857 71.9429C72.4027 70.5484 71.7325 69.1501 71.0848 67.7388C70.5047 66.481 69.8949 65.238 69.2857 63.994C68.7135 62.8253 68.1496 61.6543 67.6071 60.4714C66.9971 59.1419 66.3582 57.8277 65.7142 56.5143C64.2612 53.5505 64.2612 53.5505 63.6072 52.0885C63.3132 51.4357 62.9998 50.8122 62.637 50.1946C62.564 50.0638 62.491 49.933 62.4158 49.7982C62.2789 49.5546 62.1349 49.3148 61.9821 49.0809C61.4758 48.1562 61.6277 47.4898 61.9031 46.5076C62.0218 46.1092 62.1453 45.7127 62.2721 45.3169C62.4362 44.8003 62.5856 44.28 62.7351 43.7591C62.8523 43.3519 62.9717 42.9455 63.0917 42.5391C63.1336 42.3971 63.1755 42.2551 63.2188 42.1088C63.2402 42.0361 63.2617 41.9634 63.2838 41.8885C63.4969 41.1661 63.7089 40.4433 63.9205 39.7205C63.9581 39.592 63.9581 39.592 63.9965 39.4609C64.4568 37.888 64.9085 36.3126 65.358 34.7366C65.3914 34.6195 65.4248 34.5023 65.4593 34.3816C65.7934 33.2102 66.127 32.0385 66.4598 30.8667C66.5849 30.4264 66.7102 29.9862 66.8356 29.546C66.894 29.3409 66.9522 29.1358 67.0103 28.9306C67.0908 28.6464 67.1717 28.3623 67.2526 28.0782C67.2753 27.9975 67.2981 27.9169 67.3215 27.8338C67.5256 27.1199 67.7618 26.4174 68 25.7143C73.6405 25.6832 79.2811 25.6534 84.9217 25.6249C85.0561 25.6242 85.1904 25.6235 85.3289 25.6228C85.5309 25.6218 85.5309 25.6218 85.737 25.6208C85.872 25.6201 86.0069 25.6194 86.146 25.6187C86.4195 25.6173 86.6931 25.6159 86.9666 25.6146C88.8377 25.6051 90.7088 25.5954 92.5799 25.5854C103.737 25.5262 114.895 25.4822 132.911 25.4654Z" fill="url(#paint0_linear_162_7)" shape-rendering="crispEdges"/>
</g>
<g filter="url(#filter1_d_162_7)">
<path d="M22.3999 89.2571C22.5131 89.2571 22.6262 89.2571 22.7428 89.2571C23.7655 91.345 24.7849 93.4333 25.7572 95.5452C26.1717 96.4443 26.5969 97.3376 27.0285 98.2286C27.5981 99.4047 28.1522 100.587 28.6999 101.774C29.1247 102.691 29.5592 103.604 29.9999 104.514C30.5695 105.69 31.1236 106.873 31.6714 108.059C32.1558 109.106 32.6545 110.146 33.1573 111.184C33.5974 112.095 34.0262 113.01 34.4499 113.929C34.9557 115.024 35.4727 116.114 35.9999 117.2C36.5913 118.418 37.1671 119.642 37.7343 120.871C38.157 121.785 38.5896 122.694 39.0285 123.6C39.6025 124.785 40.1639 125.976 40.7125 127.173C41.0082 127.817 41.3105 128.454 41.6339 129.084C41.6932 129.202 41.7524 129.319 41.8135 129.44C41.9242 129.658 42.0371 129.874 42.1529 130.089C42.8659 131.504 42.221 133.075 41.8642 134.529C41.8081 134.761 41.7521 134.993 41.6962 135.224C41.5758 135.722 41.455 136.219 41.3337 136.716C41.1398 137.512 40.9471 138.307 40.7547 139.103C40.7058 139.305 40.7058 139.305 40.6559 139.512C40.5893 139.787 40.5228 140.062 40.4562 140.337C40.3545 140.758 40.2528 141.178 40.151 141.598C39.4849 144.348 38.8289 147.101 38.1747 149.854C37.9371 150.854 37.6991 151.854 37.4613 152.854C37.3736 153.223 37.2859 153.591 37.1982 153.96C36.8134 155.579 36.4276 157.197 36.041 158.815C36.0152 158.923 35.9894 159.031 35.9627 159.142C35.86 159.573 35.7572 160.003 35.6544 160.433C34.5425 165.087 33.4392 169.743 32.3428 174.4C32.1919 174.438 32.0411 174.475 31.8857 174.514C31.852 174.436 31.8184 174.358 31.7837 174.278C30.8905 172.205 29.9835 170.139 29.0701 168.075C28.4442 166.661 27.821 165.245 27.1999 163.829C26.4978 162.227 25.7929 160.628 25.0857 159.029C24.3764 157.425 23.6689 155.82 22.9642 154.214C22.922 154.118 22.8797 154.022 22.8362 153.922C22.4958 153.147 22.1556 152.371 21.8154 151.595C21.5175 150.916 21.2195 150.236 20.9214 149.557C20.8793 149.461 20.8372 149.365 20.7938 149.266C20.1222 147.736 19.4474 146.207 18.7714 144.679C18.0838 143.124 17.3986 141.568 16.7183 140.01C16.6543 139.864 16.5903 139.717 16.5263 139.571C16.4941 139.497 16.462 139.424 16.4289 139.348C16.1081 138.614 15.7861 137.881 15.4638 137.147C15.2394 136.637 15.0154 136.126 14.7922 135.615C14.4244 134.774 14.0555 133.934 13.6683 133.101C13.6133 132.981 13.5583 132.861 13.5016 132.737C13.4052 132.527 13.3068 132.318 13.2059 132.111C12.6095 130.801 13.2054 129.312 13.5151 127.977C13.5667 127.753 13.6182 127.528 13.6697 127.303C13.7816 126.815 13.8939 126.328 14.0065 125.84C14.1896 125.048 14.3716 124.255 14.5536 123.463C14.8186 122.309 15.084 121.156 15.3498 120.002C15.7603 118.22 16.1696 116.438 16.5787 114.656C16.6703 114.257 16.762 113.858 16.8537 113.459C16.8905 113.298 16.9274 113.137 16.9643 112.976C16.9826 112.897 17.0009 112.817 17.0198 112.735C17.0568 112.573 17.0939 112.412 17.1309 112.251C17.3914 111.116 17.6519 109.982 17.9126 108.847C18.9702 104.244 20.0253 99.64 21.0785 95.0357C21.0956 94.9612 21.1126 94.8867 21.1302 94.8099C21.5535 92.959 21.9768 91.1081 22.3999 89.2571Z" fill="url(#paint1_linear_162_7)" shape-rendering="crispEdges"/>
</g>
<defs>
<filter id="filter0_d_162_7" x="25.2371" y="25.4576" width="163.313" height="151.028" filterUnits="userSpaceOnUse" color-interpolation-filters="sRGB">
<feFlood flood-opacity="0" result="BackgroundImageFix"/>
<feColorMatrix in="SourceAlpha" type="matrix" values="0 0 0 0 0 0 0 0 0 0 0 0 0 0 0 0 0 0 127 0" result="hardAlpha"/>
<feOffset dy="2"/>
<feGaussianBlur stdDeviation="1"/>
<feComposite in2="hardAlpha" operator="out"/>
<feColorMatrix type="matrix" values="0 0 0 0 0 0 0 0 0 0 0 0 0 0 0 0 0 0 0.05 0"/>
<feBlend mode="normal" in2="BackgroundImageFix" result="effect1_dropShadow_162_7"/>
<feBlend mode="normal" in="SourceGraphic" in2="effect1_dropShadow_162_7" result="shape"/>
</filter>
<filter id="filter1_d_162_7" x="10.9509" y="89.2571" width="33.5234" height="89.2571" filterUnits="userSpaceOnUse" color-interpolation-filters="sRGB">
<feFlood flood-opacity="0" result="BackgroundImageFix"/>
<feColorMatrix in="SourceAlpha" type="matrix" values="0 0 0 0 0 0 0 0 0 0 0 0 0 0 0 0 0 0 127 0" result="hardAlpha"/>
<feOffset dy="2"/>
<feGaussianBlur stdDeviation="1"/>
<feComposite in2="hardAlpha" operator="out"/>
<feColorMatrix type="matrix" values="0 0 0 0 0 0 0 0 0 0 0 0 0 0 0 0 0 0 0.05 0"/>
<feBlend mode="normal" in2="BackgroundImageFix" result="effect1_dropShadow_162_7"/>
<feBlend mode="normal" in="SourceGraphic" in2="effect1_dropShadow_162_7" result="shape"/>
</filter>
<linearGradient id="paint0_linear_162_7" x1="41" y1="19.5" x2="99" y2="177.5" gradientUnits="userSpaceOnUse">
<stop stop-color="#BDBFC1"/>
<stop offset="0.5" stop-color="#BDBFC1"/>
<stop offset="1" stop-color="#BDBFC1" stop-opacity="0.35"/>
</linearGradient>
<linearGradient id="paint1_linear_162_7" x1="27.7126" y1="89.2571" x2="27.7126" y2="174.514" gradientUnits="userSpaceOnUse">
<stop stop-color="#B1B2B4"/>
<stop offset="1" stop-color="#B1B2B4" stop-opacity="0.35"/>
</linearGradient>
</defs>
</svg>
