<svg width="200" height="200" viewBox="0 0 200 200" fill="none" xmlns="http://www.w3.org/2000/svg">
<g clip-path="url(#clip0_165_16)">
<path d="M54.7694 -0.0524289C55.26 -0.0550409 55.26 -0.0550409 55.7604 -0.0577057C56.1177 -0.0576337 56.475 -0.0575617 56.8431 -0.0574875C57.2243 -0.0589237 57.6054 -0.0603599 57.9981 -0.0618396C59.2788 -0.0661511 60.5595 -0.0676524 61.8402 -0.0691402C62.7571 -0.0715873 63.674 -0.0741837 64.5909 -0.0769186C67.6054 -0.0851391 70.6199 -0.0891856 73.6344 -0.0930774C74.6722 -0.0946585 75.7101 -0.0962666 76.748 -0.0979017C81.0657 -0.104547 85.3834 -0.110208 89.7012 -0.113038C90.8212 -0.113784 91.9412 -0.114534 93.0612 -0.115298C93.3395 -0.115487 93.6179 -0.115676 93.9047 -0.115871C98.4106 -0.119111 102.916 -0.129004 107.422 -0.141697C112.052 -0.154632 116.682 -0.161652 121.312 -0.162899C123.91 -0.163743 126.508 -0.167312 129.106 -0.177142C131.552 -0.186244 133.997 -0.187886 136.442 -0.183875C137.338 -0.183682 138.234 -0.186146 139.13 -0.191514C145.432 -0.227155 150.616 0.0975561 155.444 4.61426C158.821 8.22401 160.292 12.5116 160.245 17.3935C160.245 17.7102 160.245 18.0269 160.245 18.3531C160.245 19.3888 160.239 20.4243 160.233 21.46C160.231 22.1824 160.23 22.9048 160.229 23.6273C160.226 25.5204 160.219 27.4135 160.21 29.3066C160.202 31.2417 160.198 33.1769 160.194 35.112C160.186 38.9028 160.173 42.6936 160.156 46.4844C160.656 46.4662 161.155 46.4481 161.67 46.4294C162.337 46.4148 163.005 46.4006 163.672 46.3867C164 46.3736 164.328 46.3605 164.665 46.347C167.393 46.3048 169.443 46.9348 171.507 48.7564C171.685 48.9815 171.863 49.2066 172.046 49.4385C172.231 49.6646 172.416 49.8907 172.606 50.1236C173.626 51.6453 173.503 53.2435 173.513 55.0004C173.516 55.3105 173.519 55.6207 173.523 55.9402C173.532 56.9676 173.539 57.995 173.544 59.0225C173.546 59.3743 173.548 59.726 173.551 60.0884C173.561 61.952 173.569 63.8155 173.574 65.6791C173.579 67.217 173.59 68.7547 173.606 70.2926C173.626 72.153 173.635 74.0133 173.638 75.8738C173.641 76.5804 173.647 77.2869 173.656 77.9934C173.747 85.2299 173.747 85.2299 171.484 88.2812C171.227 88.5391 170.969 88.7969 170.703 89.0625C170.583 90.1119 170.583 90.1119 170.602 91.3599C170.598 92.0942 170.598 92.0942 170.594 92.8434C170.595 93.3891 170.596 93.9347 170.597 94.4803C170.595 95.0526 170.593 95.625 170.591 96.1973C170.587 97.4318 170.584 98.6664 170.584 99.9009C170.583 101.854 170.576 103.808 170.568 105.762C170.549 110.616 170.537 115.471 170.529 120.325C170.522 124.094 170.513 127.862 170.496 131.63C170.488 133.571 170.484 135.511 170.485 137.451C170.485 138.662 170.479 139.872 170.472 141.083C170.47 141.642 170.47 142.201 170.472 142.761C170.492 149.163 170.492 149.163 168.469 151.585C168.24 151.763 168.01 151.941 167.773 152.124C167.544 152.309 167.314 152.494 167.078 152.684C165.626 153.637 164.306 153.557 162.622 153.54C162.161 153.537 161.701 153.533 161.226 153.529C160.873 153.525 160.52 153.52 160.156 153.516C160.16 153.911 160.163 154.305 160.167 154.712C160.199 158.453 160.222 162.194 160.237 165.934C160.245 167.857 160.256 169.78 160.274 171.702C160.291 173.561 160.3 175.42 160.305 177.279C160.307 177.985 160.313 178.691 160.321 179.396C160.395 185.737 159.605 190.867 155.139 195.702C152.51 198.207 148.911 200.043 145.231 200.052C144.904 200.054 144.577 200.056 144.24 200.058C143.882 200.058 143.525 200.058 143.157 200.057C142.776 200.059 142.395 200.06 142.002 200.062C140.721 200.066 139.441 200.068 138.16 200.069C137.243 200.072 136.326 200.074 135.409 200.077C132.395 200.085 129.38 200.089 126.366 200.093C125.328 200.095 124.29 200.096 123.252 200.098C118.934 200.105 114.617 200.11 110.299 200.113C109.179 200.114 108.059 200.115 106.939 200.115C106.521 200.116 106.521 200.116 106.095 200.116C101.589 200.119 97.0836 200.129 92.5777 200.142C87.9477 200.155 83.3177 200.162 78.6876 200.163C76.0896 200.164 73.4917 200.167 70.8937 200.177C68.4483 200.186 66.003 200.188 63.5576 200.184C62.6618 200.184 61.766 200.186 60.8702 200.192C54.5684 200.227 49.3839 199.902 44.5557 195.386C41.3033 191.909 39.7103 187.736 39.7551 183.006C39.755 182.685 39.7549 182.365 39.7547 182.035C39.7553 180.984 39.7613 179.934 39.7675 178.883C39.7689 178.152 39.77 177.42 39.7708 176.688C39.7738 174.769 39.7815 172.849 39.7901 170.93C39.7981 168.968 39.8017 167.007 39.8056 165.046C39.814 161.202 39.8273 157.359 39.8438 153.516C39.3215 153.527 39.3215 153.527 38.7887 153.539C38.3317 153.545 37.8747 153.551 37.4039 153.557C36.7245 153.568 36.7245 153.568 36.0315 153.58C33.8096 153.467 32.675 152.614 31.128 151.025C29.9125 149.135 29.5899 147.388 29.5893 145.163C29.5872 144.67 29.5851 144.176 29.5829 143.668C29.5845 143.126 29.5861 142.584 29.5878 142.042C29.5867 141.468 29.5853 140.894 29.5835 140.319C29.5803 139.085 29.5795 137.851 29.5803 136.617C29.5814 134.665 29.5758 132.713 29.569 130.762C29.5507 125.213 29.5413 119.664 29.5388 114.115C29.5373 111.048 29.5302 107.981 29.5172 104.915C29.5093 102.975 29.5084 101.035 29.5127 99.0949C29.5137 97.8882 29.5082 96.6816 29.5009 95.475C29.4988 94.9158 29.4994 94.3567 29.5029 93.7975C29.5072 93.0337 29.501 92.2698 29.4944 91.506C29.4939 91.0788 29.4935 90.6516 29.4931 90.2114C29.2505 88.7908 28.6856 88.17 27.7344 87.1094C26.6821 85.0981 26.3896 83.3758 26.3985 81.1379C26.3952 80.8263 26.3919 80.5147 26.3885 80.1937C26.3794 79.1709 26.3789 78.1484 26.3794 77.1255C26.3766 76.41 26.3736 75.6945 26.3704 74.979C26.3652 73.4821 26.3645 71.9852 26.3668 70.4883C26.3691 68.5753 26.3572 66.6628 26.3414 64.75C26.3313 63.2731 26.3302 61.7963 26.3316 60.3194C26.3309 59.6143 26.3272 58.9093 26.3202 58.2044C26.2602 51.3945 26.2602 51.3945 28.5156 48.8281C30.9251 46.5392 33.0751 46.3739 36.2549 46.4355C36.7727 46.4408 36.7727 46.4408 37.3009 46.4462C38.1486 46.4554 38.9962 46.4694 39.8438 46.4844C39.8403 46.0837 39.8368 45.683 39.8333 45.2702C39.8015 41.4777 39.7781 37.6852 39.7628 33.8926C39.7547 31.9432 39.7437 29.9939 39.7259 28.0445C39.7088 26.1601 39.6996 24.2758 39.6955 22.3913C39.6927 21.6756 39.6871 20.9599 39.6786 20.2442C39.607 13.9555 40.4397 9.09271 44.8609 4.29688C47.4927 1.79452 51.0877 -0.043303 54.7694 -0.0524289Z" fill="#815043"/>
<path d="M29.6875 89.4531C30.1106 89.6234 30.1106 89.6234 30.5422 89.797C33.995 91.1717 37.4404 92.2402 41.051 93.1217C41.5432 93.2439 42.0353 93.366 42.5423 93.4919C43.8772 93.8231 45.2128 94.1516 46.5485 94.4794C47.9498 94.8239 49.3503 95.171 50.751 95.5179C53.3969 96.1727 56.0434 96.8251 58.6901 97.4767C61.706 98.2193 64.7213 98.9645 67.7365 99.71C73.933 101.242 80.1303 102.771 86.3282 104.297C86.3628 104.942 86.3628 104.942 86.3982 105.601C86.4307 106.17 86.4633 106.739 86.496 107.309C86.511 107.592 86.5259 107.875 86.5413 108.166C86.7097 111.036 87.0521 113.028 89.2578 115.015C90.5811 116.08 91.695 116.451 93.3864 116.482C93.7047 116.488 94.023 116.494 94.3509 116.501C95.8083 116.518 97.2657 116.534 98.7232 116.543C99.4896 116.549 100.256 116.56 101.022 116.575C102.132 116.597 103.241 116.605 104.35 116.611C104.689 116.62 105.028 116.628 105.378 116.638C107.813 116.629 109.452 116.024 111.328 114.453C113.169 112.141 113.346 110.2 113.501 107.324C113.526 106.888 113.526 106.888 113.552 106.442C113.593 105.727 113.633 105.012 113.672 104.297C113.918 104.242 114.164 104.188 114.418 104.131C119.322 103.037 124.192 101.877 129.039 100.555C133.822 99.2657 138.621 98.0523 143.431 96.8689C144.115 96.7002 144.799 96.5314 145.483 96.3626C148.283 95.6723 151.082 94.9827 153.883 94.2997C155.627 93.8742 157.37 93.4446 159.113 93.0124C159.768 92.8508 160.423 92.6907 161.079 92.5322C161.988 92.3121 162.896 92.0869 163.804 91.8606C164.068 91.7981 164.332 91.7355 164.604 91.6711C166.474 91.1965 167.889 90.4264 169.531 89.4531C169.789 89.4531 170.047 89.4531 170.313 89.4531C170.34 96.9879 170.361 104.523 170.373 112.057C170.379 115.556 170.388 119.055 170.401 122.553C170.413 125.604 170.42 128.654 170.423 131.704C170.424 133.318 170.428 134.932 170.436 136.547C170.444 138.068 170.447 139.589 170.445 141.11C170.445 141.667 170.448 142.223 170.452 142.78C170.501 149.152 170.501 149.152 168.469 151.585C168.24 151.763 168.01 151.941 167.773 152.124C167.544 152.309 167.314 152.494 167.078 152.684C165.626 153.637 164.306 153.557 162.622 153.54C162.161 153.537 161.701 153.533 161.226 153.529C160.873 153.525 160.52 153.52 160.156 153.516C160.16 153.911 160.163 154.305 160.167 154.712C160.199 158.453 160.222 162.194 160.237 165.934C160.245 167.857 160.256 169.78 160.274 171.702C160.291 173.561 160.301 175.42 160.305 177.279C160.307 177.985 160.313 178.691 160.321 179.396C160.395 185.737 159.605 190.867 155.139 195.702C152.51 198.207 148.911 200.043 145.231 200.052C144.74 200.055 144.74 200.055 144.24 200.058C143.882 200.058 143.525 200.058 143.157 200.057C142.776 200.059 142.395 200.06 142.002 200.062C140.721 200.066 139.441 200.068 138.16 200.069C137.243 200.072 136.326 200.074 135.409 200.077C132.395 200.085 129.38 200.089 126.366 200.093C125.328 200.095 124.29 200.096 123.252 200.098C118.934 200.105 114.617 200.11 110.299 200.113C109.179 200.114 108.059 200.115 106.939 200.115C106.521 200.116 106.521 200.116 106.095 200.116C101.589 200.119 97.0836 200.129 92.5777 200.142C87.9477 200.155 83.3177 200.162 78.6876 200.163C76.0896 200.164 73.4917 200.167 70.8937 200.177C68.4483 200.186 66.003 200.188 63.5576 200.184C62.6618 200.184 61.766 200.186 60.8702 200.192C54.5684 200.227 49.3839 199.902 44.5557 195.386C41.3033 191.909 39.7104 187.736 39.7551 183.006C39.755 182.685 39.7549 182.365 39.7547 182.035C39.7553 180.984 39.7614 179.934 39.7675 178.883C39.7689 178.152 39.7701 177.42 39.7708 176.688C39.7738 174.769 39.7815 172.849 39.7901 170.93C39.7982 168.968 39.8017 167.007 39.8056 165.046C39.814 161.202 39.8273 157.359 39.8438 153.516C39.4956 153.523 39.1475 153.531 38.7887 153.539C38.3317 153.545 37.8747 153.551 37.4039 153.557C36.951 153.564 36.4981 153.572 36.0315 153.58C33.8096 153.467 32.675 152.614 31.128 151.025C29.9122 149.134 29.5898 147.39 29.5936 145.165C29.5925 144.672 29.5914 144.179 29.5903 143.671C29.5931 143.13 29.5959 142.589 29.5988 142.047C29.5991 141.474 29.5989 140.9 29.5985 140.326C29.5983 138.773 29.6029 137.219 29.6083 135.666C29.6132 134.041 29.6137 132.416 29.6146 130.791C29.617 127.715 29.6234 124.64 29.6313 121.565C29.64 118.063 29.6443 114.561 29.6482 111.059C29.6564 103.857 29.6701 96.6551 29.6875 89.4531Z" fill="#684038"/>
<path d="M46.875 153.516C81.9375 153.516 117 153.516 153.125 153.516C153.125 187.817 153.125 187.817 149.878 191.187C147.431 193.251 144.565 193.532 141.508 193.513C141.136 193.516 140.764 193.518 140.382 193.521C139.143 193.527 137.904 193.525 136.665 193.523C135.774 193.526 134.883 193.53 133.992 193.533C131.577 193.542 129.161 193.543 126.746 193.543C124.727 193.542 122.709 193.546 120.691 193.549C115.657 193.557 110.623 193.557 105.589 193.555C101.223 193.552 96.8571 193.561 92.4913 193.574C88.002 193.587 83.5128 193.592 79.0235 193.591C76.5056 193.59 73.9879 193.592 71.47 193.602C69.1019 193.61 66.7339 193.61 64.3657 193.602C63.4981 193.6 62.6304 193.602 61.7628 193.608C60.5753 193.615 59.3884 193.61 58.2008 193.602C57.8602 193.607 57.5196 193.612 57.1686 193.617C54.3133 193.576 51.7728 192.667 49.6391 190.721C41.2825 181.779 46.875 158.079 46.875 153.516Z" fill="#A3D5FE"/>
<path d="M59.8877 6.44531C60.6305 6.42869 60.6305 6.42869 61.3884 6.41174C64.933 6.4044 67.6728 6.93016 70.3654 9.34048C73.13 12.1609 73.4581 14.9927 73.5596 18.7744C73.6324 21.2471 73.7986 22.9659 75.5203 24.8779C76.8445 25.9199 77.9138 26.2695 79.5945 26.279C79.9673 26.2829 80.3402 26.2868 80.7244 26.2908C81.1309 26.291 81.5374 26.2913 81.9562 26.2916C82.3864 26.2948 82.8165 26.2981 83.2598 26.3014C84.6839 26.3108 86.1079 26.3143 87.532 26.3168C88.5217 26.3203 89.5113 26.3239 90.5009 26.3275C92.5766 26.334 94.6522 26.337 96.7278 26.3381C99.123 26.3395 101.518 26.3512 103.913 26.3676C106.221 26.3828 108.529 26.3872 110.837 26.3876C111.817 26.3892 112.797 26.3941 113.777 26.4023C115.149 26.4128 116.52 26.4109 117.892 26.406C118.296 26.4118 118.7 26.4176 119.117 26.4236C121.73 26.3971 123.039 25.9682 125 24.2188C126.403 22.5518 126.336 20.9292 126.367 18.8477C126.529 14.7105 127.113 12.199 129.874 9.00116C132.89 6.55935 135.871 6.40531 139.648 6.46973C140.106 6.46696 140.564 6.46419 141.035 6.46133C144.359 6.48558 147.551 6.74012 150.122 9.05762C150.482 9.36805 150.482 9.36805 150.85 9.68475C158.68 19.1577 153.125 34.1944 153.125 46.4844C118.062 46.4844 83 46.4844 46.875 46.4844C46.875 12.1094 46.875 12.1094 50.1465 8.83789C53.0993 6.35055 56.1852 6.43785 59.8877 6.44531Z" fill="#A3D5FE"/>
<path d="M54.7694 -0.0524289C55.2599 -0.0550409 55.2599 -0.0550409 55.7604 -0.0577057C56.1177 -0.0576337 56.475 -0.0575617 56.8431 -0.0574875C57.2242 -0.0589237 57.6054 -0.0603599 57.998 -0.0618396C59.2787 -0.0661511 60.5594 -0.0676524 61.8401 -0.0691402C62.757 -0.0715873 63.6739 -0.0741837 64.5908 -0.0769186C67.6053 -0.0851391 70.6198 -0.0891856 73.6343 -0.0930774C74.6722 -0.0946585 75.7101 -0.0962666 76.748 -0.0979017C81.0657 -0.104547 85.3834 -0.110208 89.7011 -0.113038C90.8211 -0.113784 91.9411 -0.114534 93.0612 -0.115298C93.3395 -0.115487 93.6179 -0.115676 93.9047 -0.115871C98.4106 -0.119111 102.916 -0.129004 107.422 -0.141697C112.052 -0.154632 116.682 -0.161652 121.312 -0.162899C123.91 -0.163743 126.508 -0.167312 129.106 -0.177142C131.552 -0.186244 133.997 -0.187886 136.442 -0.183875C137.338 -0.183682 138.234 -0.186146 139.13 -0.191514C145.432 -0.227155 150.616 0.0975561 155.444 4.61426C158.821 8.22401 160.292 12.5116 160.245 17.3935C160.245 17.7102 160.245 18.0269 160.245 18.3531C160.245 19.3888 160.239 20.4243 160.233 21.46C160.231 22.1824 160.23 22.9048 160.229 23.6273C160.226 25.5204 160.219 27.4135 160.21 29.3066C160.202 31.2417 160.198 33.1769 160.194 35.112C160.186 38.9028 160.172 42.6936 160.156 46.4844C157.965 46.4844 155.773 46.4844 153.516 46.4844C153.512 45.5443 153.508 44.6042 153.505 43.6357C153.491 40.5205 153.47 37.4054 153.444 34.2903C153.428 32.4026 153.416 30.515 153.41 28.6273C153.404 26.8036 153.39 24.9801 153.372 23.1565C153.366 22.4627 153.363 21.769 153.363 21.0752C153.441 15.9764 153.441 15.9764 151.562 11.3281C151.423 11.1077 151.283 10.8873 151.139 10.6602C149.634 8.59092 147.373 7.54305 144.922 7.03125C143.214 6.91254 141.506 6.90483 139.795 6.88477C139.1 6.86286 139.1 6.86286 138.391 6.84052C134.996 6.80679 132.325 7.34875 129.725 9.63965C127.148 12.2819 126.922 15.2621 126.831 18.7744C126.757 21.2194 126.609 22.9464 124.908 24.8398C124.681 25.0216 124.453 25.2033 124.219 25.3906C123.97 25.5921 123.722 25.7936 123.466 26.0011C121.664 26.8439 119.96 26.7289 117.993 26.7203C117.562 26.723 117.132 26.7257 116.688 26.7285C115.264 26.7356 113.84 26.7341 112.416 26.7319C111.426 26.7337 110.436 26.7357 109.446 26.7381C107.371 26.7416 105.296 26.7407 103.221 26.7367C100.826 26.7323 98.4307 26.7378 96.0353 26.7482C93.7271 26.7579 91.4189 26.7589 89.1107 26.7564C88.1303 26.7563 87.1499 26.7587 86.1695 26.7635C84.7986 26.7693 83.4281 26.7652 82.0573 26.7585C81.6524 26.7623 81.2475 26.766 80.8303 26.7699C78.0842 26.7418 76.7316 26.3023 74.7431 24.3711C73.373 22.5276 73.1776 21.06 73.1933 18.7988C73.0872 14.9139 72.5993 12.3421 70.0409 9.30634C66.9557 6.86433 63.8103 6.77833 59.9853 6.81152C59.4936 6.80221 59.0019 6.79289 58.4953 6.7833C54.7697 6.78913 52.0012 7.44384 49.2676 10.0586C46.6958 13.9919 46.6391 17.5254 46.637 22.1085C46.6311 22.8128 46.6246 23.5172 46.6174 24.2216C46.6004 26.0652 46.5925 27.9088 46.5866 29.7525C46.579 31.638 46.5626 33.5234 46.5469 35.4088C46.5176 39.1006 46.4987 42.7924 46.4844 46.4844C44.293 46.4844 42.1016 46.4844 39.8437 46.4844C39.8083 42.2871 39.7797 38.09 39.7628 33.8926C39.7547 31.9432 39.7437 29.9939 39.7259 28.0445C39.7088 26.1601 39.6995 24.2758 39.6955 22.3913C39.6926 21.6756 39.687 20.9599 39.6785 20.2442C39.6069 13.9555 40.4397 9.09271 44.8608 4.29688C47.4926 1.79452 51.0876 -0.043303 54.7694 -0.0524289Z" fill="#1F303A"/>
<path d="M39.8438 153.516C42.0352 153.516 44.2266 153.516 46.4844 153.516C46.488 154.428 46.4917 155.34 46.4954 156.28C46.5087 159.308 46.5304 162.336 46.5562 165.364C46.5716 167.198 46.5842 169.032 46.5902 170.866C46.5962 172.639 46.6097 174.412 46.6283 176.185C46.634 176.859 46.6371 177.532 46.6375 178.206C46.6418 182.567 46.8752 186.191 49.2676 189.99C51.9126 192.405 54.6756 193.262 58.1983 193.214C58.5708 193.217 58.9433 193.22 59.3271 193.223C60.5648 193.229 61.8019 193.222 63.0395 193.215C63.9311 193.217 64.8226 193.22 65.7142 193.224C68.1282 193.231 70.5419 193.226 72.9559 193.218C75.4853 193.212 78.0147 193.215 80.5442 193.217C84.791 193.219 89.0377 193.213 93.2845 193.202C97.6483 193.191 102.012 193.188 106.376 193.194C111.643 193.201 116.911 193.2 122.179 193.193C124.187 193.19 126.196 193.191 128.204 193.194C130.57 193.197 132.936 193.192 135.302 193.181C136.169 193.179 137.036 193.178 137.904 193.181C139.089 193.185 140.275 193.178 141.461 193.17C141.802 193.173 142.143 193.176 142.495 193.18C145.464 193.14 147.665 192.175 150.122 190.552C152.597 187.962 153.178 184.833 153.205 181.365C153.209 181.064 153.213 180.762 153.217 180.452C153.229 179.459 153.239 178.465 153.249 177.472C153.257 176.782 153.265 176.093 153.273 175.403C153.295 173.59 153.314 171.776 153.333 169.962C153.353 168.111 153.374 166.26 153.396 164.409C153.438 160.778 153.477 157.147 153.516 153.516C155.707 153.516 157.898 153.516 160.156 153.516C160.192 157.655 160.22 161.795 160.237 165.934C160.245 167.857 160.256 169.78 160.274 171.702C160.291 173.561 160.3 175.42 160.305 177.279C160.307 177.985 160.313 178.691 160.321 179.396C160.395 185.737 159.605 190.867 155.139 195.702C152.51 198.207 148.911 200.043 145.231 200.052C144.74 200.055 144.74 200.055 144.24 200.058C143.882 200.058 143.525 200.058 143.157 200.057C142.776 200.059 142.395 200.06 142.002 200.062C140.721 200.066 139.441 200.068 138.16 200.069C137.243 200.072 136.326 200.074 135.409 200.077C132.395 200.085 129.38 200.089 126.366 200.093C125.328 200.095 124.29 200.096 123.252 200.098C118.934 200.105 114.617 200.11 110.299 200.113C109.179 200.114 108.059 200.115 106.939 200.115C106.521 200.116 106.521 200.116 106.095 200.116C101.589 200.119 97.0836 200.129 92.5777 200.142C87.9477 200.155 83.3176 200.162 78.6876 200.163C76.0896 200.164 73.4917 200.167 70.8937 200.177C68.4483 200.186 66.003 200.188 63.5576 200.184C62.6618 200.184 61.7659 200.186 60.8701 200.192C54.5683 200.227 49.3839 199.902 44.5557 195.386C41.3033 191.909 39.7103 187.736 39.7551 183.006C39.755 182.685 39.7548 182.365 39.7547 182.035C39.7553 180.984 39.7613 179.934 39.7675 178.883C39.7689 178.152 39.77 177.42 39.7708 176.688C39.7738 174.769 39.7815 172.849 39.7901 170.93C39.7981 168.968 39.8017 167.007 39.8056 165.046C39.814 161.202 39.8277 157.359 39.8438 153.516Z" fill="#1F303A"/>
<path d="M93.4306 96.3647C93.7489 96.3584 94.0671 96.3522 94.395 96.3458C94.9065 96.3426 94.9065 96.3426 95.4284 96.3394C95.7829 96.3359 96.1374 96.3324 96.5027 96.3287C97.2526 96.3231 98.0026 96.3196 98.7525 96.3182C99.8929 96.3135 101.033 96.2943 102.173 96.2746C102.903 96.2709 103.634 96.268 104.364 96.2662C104.702 96.2585 105.04 96.2509 105.388 96.2431C107.83 96.261 109.431 96.8935 111.328 98.4375C113.67 101.02 113.378 103.166 113.403 106.543C113.42 107.291 113.42 107.291 113.438 108.054C113.468 112.611 113.468 112.611 111.719 114.453C110.126 115.887 108.742 116.887 106.563 116.91C106.243 116.915 105.924 116.92 105.595 116.925C105.253 116.926 104.91 116.927 104.558 116.928C104.202 116.931 103.847 116.933 103.481 116.936C102.729 116.94 101.977 116.942 101.226 116.942C100.081 116.943 98.9372 116.958 97.7927 116.972C97.0611 116.975 96.3294 116.976 95.5977 116.977C95.2579 116.983 94.918 116.988 94.5679 116.994C91.9952 116.975 90.3027 116.397 88.3819 114.597C86.3902 111.973 86.6209 109.981 86.5966 106.738C86.5853 106.24 86.5739 105.741 86.5622 105.228C86.5313 100.671 86.5313 100.671 88.2812 98.8281C89.8708 97.3974 91.2571 96.3971 93.4306 96.3647Z" fill="#FCC35E"/>
<path d="M82.615 179.787C83.2337 179.783 83.2337 179.783 83.8648 179.779C85.2274 179.772 86.5892 179.783 87.9518 179.794C88.8989 179.795 89.8461 179.794 90.7932 179.793C92.7779 179.793 94.7624 179.801 96.7471 179.815C99.2916 179.833 101.836 179.834 104.38 179.828C106.336 179.826 108.291 179.831 110.247 179.839C111.185 179.842 112.124 179.843 113.062 179.841C114.373 179.841 115.684 179.851 116.995 179.864C117.383 179.862 117.771 179.86 118.17 179.858C119.846 179.884 120.835 179.926 122.301 180.789C123.349 181.985 123.465 182.798 123.438 184.375C122.623 185.714 122.198 186.221 120.703 186.719C120.133 186.757 119.561 186.773 118.989 186.776C118.638 186.779 118.288 186.782 117.927 186.785C117.543 186.786 117.16 186.787 116.764 186.788C116.157 186.792 116.157 186.792 115.538 186.796C114.197 186.803 112.856 186.808 111.514 186.812C111.057 186.813 110.599 186.815 110.128 186.817C107.707 186.825 105.286 186.83 102.865 186.834C100.361 186.838 97.8582 186.852 95.355 186.867C93.4321 186.878 91.5093 186.881 89.5865 186.882C88.6635 186.884 87.7406 186.889 86.8177 186.896C85.5271 186.905 84.2369 186.905 82.9463 186.902C82.5643 186.907 82.1824 186.912 81.7888 186.918C80.1234 186.905 79.1619 186.87 77.7048 186.008C76.6374 184.798 76.5073 184.026 76.5626 182.422C78.1235 179.742 79.6661 179.742 82.615 179.787Z" fill="#7DAAD3"/>
</g>
<defs>
<clipPath id="clip0_165_16">
<rect width="200" height="200" fill="white"/>
</clipPath>
</defs>
</svg>
